<mxfile host="Electron" agent="Mozilla/5.0 (Windows NT 10.0; Win64; x64) AppleWebKit/537.36 (KHTML, like Gecko) draw.io/24.7.17 Chrome/128.0.6613.36 Electron/32.0.1 Safari/537.36" version="24.7.17">
  <diagram name="Pagina-1" id="wq6ALJojTr6erDL_bIp6">
    <mxGraphModel dx="979" dy="567" grid="1" gridSize="10" guides="1" tooltips="1" connect="1" arrows="1" fold="1" page="1" pageScale="1" pageWidth="827" pageHeight="1169" math="0" shadow="0">
      <root>
        <mxCell id="0" />
        <mxCell id="1" parent="0" />
        <mxCell id="cmSaWNnfYbKadsygvXqo-1" value="&lt;p style=&quot;font-size: 18px;&quot; data-sourcepos=&quot;5:1-5:166&quot;&gt;&lt;br style=&quot;font-size: 18px;&quot;&gt;&lt;/p&gt;" style="rounded=0;whiteSpace=wrap;html=1;fillColor=default;strokeColor=#00B2FF;strokeWidth=3;fontSize=18;" vertex="1" parent="1">
          <mxGeometry x="20" y="340" width="490" height="280" as="geometry" />
        </mxCell>
        <mxCell id="cmSaWNnfYbKadsygvXqo-2" value="Task 1 : cambio del dosaggio" style="rounded=0;whiteSpace=wrap;html=1;fillColor=default;strokeColor=#00B2FF;strokeWidth=3;fontSize=22;" vertex="1" parent="1">
          <mxGeometry x="20" y="290" width="490" height="50" as="geometry" />
        </mxCell>
        <mxCell id="cmSaWNnfYbKadsygvXqo-5" value="&lt;p style=&quot;font-size: 18px;&quot; data-sourcepos=&quot;5:1-5:166&quot;&gt;&lt;br style=&quot;font-size: 18px;&quot;&gt;&lt;/p&gt;" style="rounded=0;whiteSpace=wrap;html=1;fillColor=default;strokeColor=#00B2FF;strokeWidth=3;fontSize=18;" vertex="1" parent="1">
          <mxGeometry x="50" y="400" width="490" height="280" as="geometry" />
        </mxCell>
        <mxCell id="cmSaWNnfYbKadsygvXqo-6" value="Task 2 : selezione del formulario" style="rounded=0;whiteSpace=wrap;html=1;fillColor=default;strokeColor=#00B2FF;strokeWidth=3;fontSize=22;" vertex="1" parent="1">
          <mxGeometry x="50" y="350" width="490" height="50" as="geometry" />
        </mxCell>
        <mxCell id="cmSaWNnfYbKadsygvXqo-7" value="&lt;p style=&quot;font-size: 18px;&quot; data-sourcepos=&quot;5:1-5:166&quot;&gt;Il controllo del dosaggio è una misura di sicurezza per verificare che il medico non abbia prescritto un dosaggio eccessivamente basso o alto. Utilizzando il codice identificativo del farmaco generico presente nel formulario, si ricerca nel formulario stesso per ottenere il dosaggio massimo e minimo raccomandati. Il dosaggio prescritto viene quindi confrontato con i valori minimi e massimi. Se il dosaggio è al di fuori dell&#39;intervallo, viene visualizzato un messaggio di errore che indica che il dosaggio è troppo alto o troppo basso. Se il dosaggio rientra nell&#39;intervallo, viene abilitato il pulsante &#39;Conferma&#39;&lt;br style=&quot;font-size: 18px;&quot;&gt;&lt;/p&gt;" style="rounded=0;whiteSpace=wrap;html=1;fillColor=default;strokeColor=#00B2FF;strokeWidth=3;fontSize=18;" vertex="1" parent="1">
          <mxGeometry x="80" y="460" width="490" height="280" as="geometry" />
        </mxCell>
        <mxCell id="cmSaWNnfYbKadsygvXqo-8" value="Task 3 : controllo del dosaggio" style="rounded=0;whiteSpace=wrap;html=1;fillColor=default;strokeColor=#00B2FF;strokeWidth=3;fontSize=22;" vertex="1" parent="1">
          <mxGeometry x="80" y="410" width="490" height="50" as="geometry" />
        </mxCell>
      </root>
    </mxGraphModel>
  </diagram>
</mxfile>
